<svg xmlns="http://www.w3.org/2000/svg" viewBox="0 0 448 448"><g id="Calque_2" data-name="Calque 2"><g id="Calque_1-2" data-name="Calque 1"><path d="M416,0H31.9A32.14,32.14,0,0,0,0,32.3V415.7A32.14,32.14,0,0,0,31.9,448H416a32.22,32.22,0,0,0,32-32.3V32.3A32.22,32.22,0,0,0,416,0ZM214.94,252.69l-.39,1.17h-60.2q0-15-6.62-24.45T127.66,220q-18.7,0-26.2,15.39T94,276.46v4.48q0,26.49,7.5,41.5t26.78,15q13.24,0,19.68-7.21T154.35,309h60.2l.39,1.17q.78,34.48-23.87,56.21t-62.83,21.72q-47.93,0-73.93-29.81t-26-77.34v-4.48q0-47.34,25.91-77.25t73.45-29.91q40.13,0,64.1,22.41T214.94,252.69ZM358.72,384H291.9L223.32,173.2h69.36l28.25,123.91,3.89,22.4,1.17.2,4.29-22.6L358.14,173.2H427.3Z"/></g></g></svg>